<svg version="1.2" xmlns="http://www.w3.org/2000/svg" viewBox="0 0 512 512" width="512" height="512"><style></style><path fill-rule="evenodd" d="m394 141v230c0 3-0.6 6-1.7 8.8-1.2 2.8-2.9 5.4-5.1 7.4-2 2.2-4.6 3.9-7.4 5.1-2.8 1.1-5.8 1.7-8.8 1.7h-103.5c-3 0-6-1.2-8.1-3.4-2.2-2.1-3.4-5.1-3.4-8.1 0-3 1.2-6 3.4-8.1 2.1-2.2 5.1-3.4 8.1-3.4h103.5v-230h-230v138c0 3-1.2 6-3.4 8.1-2.1 2.2-5.1 3.4-8.1 3.4-3 0-6-1.2-8.1-3.4-2.2-2.1-3.4-5.1-3.4-8.1v-138c0-3 0.6-6 1.7-8.8 1.2-2.8 2.9-5.4 5.1-7.4 2-2.2 4.6-3.9 7.4-5.1 2.8-1.1 5.8-1.7 8.8-1.7h230c3 0 6 0.6 8.8 1.7 2.8 1.2 5.4 2.9 7.4 5.1 2.2 2 3.9 4.6 5.1 7.4 1.1 2.8 1.7 5.8 1.7 8.8zm-138.9 156.6c0.6 1.4 0.9 2.9 0.9 4.4 0 1.5-0.3 3-0.9 4.4-0.5 1.4-1.4 2.6-2.5 3.7l-80.5 80.5c-1.1 1.1-2.3 2-3.7 2.5-1.4 0.6-2.9 0.9-4.4 0.9-1.5 0-3-0.3-4.4-0.9-1.4-0.5-2.6-1.4-3.7-2.5l-34.5-34.5c-2.2-2.1-3.4-5.1-3.4-8.1 0-3 1.2-6 3.4-8.1 2.1-2.2 5.1-3.4 8.1-3.4 3 0 6 1.2 8.1 3.4l26.4 26.4 72.4-72.4c1.1-1.1 2.3-2 3.7-2.5 1.4-0.6 2.9-0.9 4.4-0.9 1.5 0 3 0.3 4.4 0.9 1.4 0.5 2.6 1.4 3.7 2.5 1.1 1.1 2 2.3 2.5 3.7z"/></svg>